<?xml version="1.0" encoding="utf-8"?>
<!-- Generator: Adobe Illustrator 27.5.0, SVG Export Plug-In . SVG Version: 6.00 Build 0)  -->
<svg version="1.1" id="Layer_1" xmlns="http://www.w3.org/2000/svg" xmlns:xlink="http://www.w3.org/1999/xlink" x="0px" y="0px"
	 viewBox="0 0 1920 1920" style="enable-background:new 0 0 1920 1920;" xml:space="preserve">
<style type="text/css">
	.st0{fill:#00A99D;}
	.st1{fill:#3CE5D5;}
</style>
<g>
	<polygon class="st0" points="1338.34,713.21 1163.26,862.25 963.18,756.37 963.18,514.7 	"/>
	<polygon class="st1" points="963.18,514.7 963.18,756.37 875.38,802.84 647.04,681.99 	"/>
	<polygon class="st0" points="963.18,1308.76 963.18,1550.43 588.02,1351.92 763.1,1202.88 	"/>
	<polygon class="st1" points="1269.23,1388.48 963.18,1550.43 963.18,1308.76 1040.89,1267.65 	"/>
	<polygon class="st0" points="1338.34,1115.38 1338.34,1351.92 1333.49,1354.48 1105.13,1233.65 963.18,1158.54 871.92,1110.25 
		588.02,960.02 588.02,718.36 811.52,836.63 963.18,916.87 1047,961.22 1333.49,1112.81 	"/>
</g>
<g>
	<g>
		<g>
			<path class="st0" d="M963.17,1756.83c403.46,0,735.42-311.09,769.13-705.97c23.01-7.93,39.64-29.54,39.64-55.24
				c0-25.07-15.8-46.32-37.93-54.71c-22.78-405.47-359.76-728.38-770.84-728.38c-206.69,0-394.51,81.79-533.24,214.5
				c-7.1-3.05-14.91-4.77-23.13-4.77c-32.4,0-58.67,26.27-58.67,58.67c0,10.24,2.86,19.72,7.47,28.1
				C252.65,640.24,191.03,805.34,191.03,984.67c0,69.09,9.2,137.51,27.2,203.55c-4.94,6.01-8.02,13.61-8.02,21.99
				c0,19.25,15.61,34.85,34.85,34.85s34.85-15.61,34.85-34.85c0-14.35-8.69-26.66-21.08-32.01
				c-17.2-62.76-25.98-127.82-25.98-193.54c0-169.02,57.88-324.69,154.64-448.59c6.08,2.13,12.5,3.51,19.31,3.51
				c32.4,0,58.67-26.27,58.67-58.67c0-8.85-2.1-17.16-5.61-24.69C590.97,331.3,768.2,254.35,963.17,254.35
				c388.05,0,706.25,304.24,728.91,686.69c-21.9,8.51-37.49,29.66-37.49,54.57c0,24.31,14.79,45.17,35.85,54.07
				c-33.02,372.35-346.5,665.32-727.28,665.32c-121.19,0-241.13-30.31-347.01-87.59c-0.58-18.75-15.86-33.79-34.75-33.79
				c-19.25,0-34.85,15.61-34.85,34.85s15.61,34.85,34.85,34.85c5.69,0,10.98-1.49,15.72-3.91l-2.23,4.1
				C707.21,1724.56,834.55,1756.83,963.17,1756.83z M406.8,511.71c-16.98,0-30.8-13.81-30.8-30.78c0-16.98,13.82-30.79,30.8-30.79
				c16.98,0,30.78,13.81,30.78,30.79C437.59,497.9,423.78,511.71,406.8,511.71z M1682.48,995.62c0-16.98,13.82-30.79,30.8-30.79
				c16.98,0,30.78,13.81,30.78,30.79c0,16.97-13.81,30.78-30.78,30.78C1696.3,1026.4,1682.48,1012.59,1682.48,995.62z"/>
			<path class="st0" d="M1851.98,984.67c0-156.79-41.1-304.04-112.66-432.05c1.91-4.35,3-9.13,3-14.18
				c0-19.57-15.86-35.43-35.43-35.43c-19.57,0-35.44,15.86-35.44,35.43c0,19.03,15.03,34.43,33.85,35.28l-1.19,1.19
				c67.47,121.52,106.05,261.2,106.05,409.77c0,222.26-86.18,424.68-226.71,575.93c-7.21-3.17-15.15-4.98-23.53-4.98
				c-32.4,0-58.67,26.27-58.67,58.67c0,7.29,1.5,14.2,3.93,20.64c-146.98,122.72-335.98,196.72-541.99,196.72
				c-208.29,0-399.13-75.72-546.8-200.89c3.14-7.19,4.94-15.09,4.94-23.44c0-32.4-26.27-58.67-58.67-58.67
				c-9.14,0-17.69,2.27-25.4,6c-137.24-150.58-221.04-350.67-221.04-569.97c0-433.73,327.78-792.16,748.61-841.08
				c10.23,17.21,28.81,28.86,50.28,28.86c23.81,0,44.2-14.24,53.4-34.61c127.06,0.79,247.54,29.7,355.59,80.82
				c0,0.09-0.03,0.17-0.03,0.26c0,19.57,15.86,35.43,35.44,35.43c19.57,0,35.44-15.86,35.44-35.43c0-19.57-15.87-35.44-35.44-35.44
				c-3.33,0-6.5,0.61-9.56,1.47c-114.89-55.8-243.38-87.71-379.18-88.87c-7.54-23.7-29.46-40.98-55.66-40.98
				c-28.49,0-52.2,20.32-57.52,47.25C417.12,154.78,74.38,530.34,74.38,984.67c0,231.23,88.82,442.05,234.05,600.32
				c-2.84,6.89-4.45,14.41-4.45,22.33c0,32.4,26.27,58.67,58.67,58.67c8.7,0,16.89-2.01,24.32-5.41
				c155.29,132.58,356.49,212.9,576.21,212.9c216.68,0,415.41-78.03,569.8-207.34c8.1,4.22,17.16,6.83,26.93,6.83
				c32.4,0,58.67-26.27,58.67-58.67c0-8.7-2.01-16.88-5.41-24.31C1761.18,1431.16,1851.98,1218.37,1851.98,984.67z M915.1,83
				c16.98,0,30.78,13.81,30.78,30.79c0,16.97-13.81,30.78-30.78,30.78c-16.98,0-30.8-13.81-30.8-30.78
				C884.31,96.81,898.13,83,915.1,83z M362.65,1638.1c-16.98,0-30.8-13.81-30.8-30.78c0-16.98,13.82-30.79,30.8-30.79
				c16.98,0,30.78,13.81,30.78,30.79C393.44,1624.29,379.63,1638.1,362.65,1638.1z M1559.92,1645.07c-16.98,0-30.8-13.81-30.8-30.78
				c0-16.98,13.82-30.79,30.8-30.79c16.98,0,30.78,13.81,30.78,30.79C1590.7,1631.26,1576.89,1645.07,1559.92,1645.07z"/>
			<path class="st0" d="M425.39,1378.44c3.59,0,7.07-0.44,10.49-1.06c120.03,160.75,311.71,265.03,527.31,265.03
				c101.64,0,198.95-22.65,289.41-67.08c4.68,2.34,9.88,3.77,15.47,3.77c19.25,0,34.85-15.61,34.85-34.85s-15.61-34.85-34.85-34.85
				c-17.09,0-31.25,12.32-34.22,28.56c-84.59,41.48-175.6,62.64-270.66,62.64c-200.53,0-378.94-96.37-491.47-245.19
				c7.63-9.9,12.35-22.16,12.35-35.63c0-32.4-26.27-58.67-58.67-58.67c-4.02,0-7.95,0.41-11.74,1.18
				c-42.35-83.48-66.37-177.76-66.37-277.6c0-339.62,276.29-615.91,615.91-615.91c122.53,0,236.72,36.11,332.76,98.04
				c-1.23,4.72-2.09,9.59-2.09,14.7c0,32.4,26.27,58.67,58.67,58.67c10.34,0,19.92-2.91,28.36-7.61
				c121.78,112.6,198.21,273.56,198.21,452.1c0,85.97-17.43,169.04-51.63,247.01c-16.62,2.65-29.36,16.94-29.36,34.3
				c0,19.25,15.6,34.85,34.85,34.85c19.25,0,34.85-15.61,34.85-34.85c0-5.21-1.22-10.11-3.27-14.55
				c37.39-84.15,56.37-173.89,56.37-266.76c0-191.39-82.22-363.89-213.13-484.19c2.06-5.98,3.41-12.29,3.41-18.97
				c0-32.4-26.27-58.67-58.67-58.67c-11.99,0-23.12,3.63-32.41,9.81c-102.89-66.76-225.41-105.7-356.93-105.7
				c-362.68,0-657.73,295.06-657.73,657.73c0,108.18,26.42,210.24,72.88,300.35c-7.21,9.75-11.61,21.68-11.61,34.74
				C366.72,1352.17,392.99,1378.44,425.39,1378.44z M425.39,1288.98c16.98,0,30.78,13.81,30.78,30.79
				c0,16.97-13.81,30.78-30.78,30.78c-16.98,0-30.8-13.81-30.8-30.78C394.6,1302.79,408.42,1288.98,425.39,1288.98z M1352.53,450.72
				c16.98,0,30.78,13.81,30.78,30.79c0,16.97-13.81,30.78-30.78,30.78c-16.98,0-30.8-13.81-30.8-30.78
				C1321.73,464.53,1335.55,450.72,1352.53,450.72z"/>
		</g>
	</g>
</g>
</svg>
