<?xml version="1.0" encoding="UTF-8" standalone="no"?>
<svg
   version="1.1"
   id="Layer_1"
   x="0px"
   y="0px"
   viewBox="0 0 1777.6 1818.36"
   xml:space="preserve"
   sodipodi:docname="skyhigh-logo.svg"
   width="1777.6"
   height="1818.36"
   inkscape:version="1.2 (dc2aedaf03, 2022-05-15)"
   xmlns:inkscape="http://www.inkscape.org/namespaces/inkscape"
   xmlns:sodipodi="http://sodipodi.sourceforge.net/DTD/sodipodi-0.dtd"
   xmlns="http://www.w3.org/2000/svg"
   xmlns:svg="http://www.w3.org/2000/svg"><defs
   id="defs31" /><sodipodi:namedview
   id="namedview29"
   pagecolor="#ffffff"
   bordercolor="#666666"
   borderopacity="1.0"
   inkscape:showpageshadow="2"
   inkscape:pageopacity="0.0"
   inkscape:pagecheckerboard="0"
   inkscape:deskcolor="#d1d1d1"
   showgrid="false"
   inkscape:zoom="0.41875"
   inkscape:cx="752.23881"
   inkscape:cy="906.26866"
   inkscape:window-width="1920"
   inkscape:window-height="991"
   inkscape:window-x="-9"
   inkscape:window-y="-9"
   inkscape:window-maximized="1"
   inkscape:current-layer="Layer_1" />
<style
   type="text/css"
   id="style2">
	.st0{fill:#00A99D;}
	.st1{fill:#3CE5D5;}
</style>
<g
   id="g14"
   transform="translate(-74.38,-55.12)">
	<polygon
   class="st0"
   points="963.18,756.37 963.18,514.7 1338.34,713.21 1163.26,862.25 "
   id="polygon4" />
	<polygon
   class="st1"
   points="875.38,802.84 647.04,681.99 963.18,514.7 963.18,756.37 "
   id="polygon6" />
	<polygon
   class="st0"
   points="588.02,1351.92 763.1,1202.88 963.18,1308.76 963.18,1550.43 "
   id="polygon8" />
	<polygon
   class="st1"
   points="963.18,1308.76 1040.89,1267.65 1269.23,1388.48 963.18,1550.43 "
   id="polygon10" />
	<polygon
   class="st0"
   points="1333.49,1354.48 1105.13,1233.65 963.18,1158.54 871.92,1110.25 588.02,960.02 588.02,718.36 811.52,836.63 963.18,916.87 1047,961.22 1333.49,1112.81 1338.34,1115.38 1338.34,1351.92 "
   id="polygon12" />
</g>
<g
   id="g26"
   transform="translate(-74.38,-55.12)">
	<g
   id="g24">
		<g
   id="g22">
			<path
   class="st0"
   d="m 963.17,1756.83 c 403.46,0 735.42,-311.09 769.13,-705.97 23.01,-7.93 39.64,-29.54 39.64,-55.24 0,-25.07 -15.8,-46.32 -37.93,-54.71 -22.78,-405.47 -359.76,-728.38 -770.84,-728.38 -206.69,0 -394.51,81.79 -533.24,214.5 -7.1,-3.05 -14.91,-4.77 -23.13,-4.77 -32.4,0 -58.67,26.27 -58.67,58.67 0,10.24 2.86,19.72 7.47,28.1 -102.95,131.21 -164.57,296.31 -164.57,475.64 0,69.09 9.2,137.51 27.2,203.55 -4.94,6.01 -8.02,13.61 -8.02,21.99 0,19.25 15.61,34.85 34.85,34.85 19.24,0 34.85,-15.61 34.85,-34.85 0,-14.35 -8.69,-26.66 -21.08,-32.01 -17.2,-62.76 -25.98,-127.82 -25.98,-193.54 0,-169.02 57.88,-324.69 154.64,-448.59 6.08,2.13 12.5,3.51 19.31,3.51 32.4,0 58.67,-26.27 58.67,-58.67 0,-8.85 -2.1,-17.16 -5.61,-24.69 C 590.97,331.3 768.2,254.35 963.17,254.35 c 388.05,0 706.25,304.24 728.91,686.69 -21.9,8.51 -37.49,29.66 -37.49,54.57 0,24.31 14.79,45.17 35.85,54.07 -33.02,372.35 -346.5,665.32 -727.28,665.32 -121.19,0 -241.13,-30.31 -347.01,-87.59 -0.58,-18.75 -15.86,-33.79 -34.75,-33.79 -19.25,0 -34.85,15.61 -34.85,34.85 0,19.24 15.61,34.85 34.85,34.85 5.69,0 10.98,-1.49 15.72,-3.91 l -2.23,4.1 c 112.32,61.05 239.66,93.32 368.28,93.32 z M 406.8,511.71 c -16.98,0 -30.8,-13.81 -30.8,-30.78 0,-16.98 13.82,-30.79 30.8,-30.79 16.98,0 30.78,13.81 30.78,30.79 0.01,16.97 -13.8,30.78 -30.78,30.78 z m 1275.68,483.91 c 0,-16.98 13.82,-30.79 30.8,-30.79 16.98,0 30.78,13.81 30.78,30.79 0,16.97 -13.81,30.78 -30.78,30.78 -16.98,0 -30.8,-13.81 -30.8,-30.78 z"
   id="path16" />
			<path
   class="st0"
   d="m 1851.98,984.67 c 0,-156.79 -41.1,-304.04 -112.66,-432.05 1.91,-4.35 3,-9.13 3,-14.18 0,-19.57 -15.86,-35.43 -35.43,-35.43 -19.57,0 -35.44,15.86 -35.44,35.43 0,19.03 15.03,34.43 33.85,35.28 l -1.19,1.19 c 67.47,121.52 106.05,261.2 106.05,409.77 0,222.26 -86.18,424.68 -226.71,575.93 -7.21,-3.17 -15.15,-4.98 -23.53,-4.98 -32.4,0 -58.67,26.27 -58.67,58.67 0,7.29 1.5,14.2 3.93,20.64 -146.98,122.72 -335.98,196.72 -541.99,196.72 -208.29,0 -399.13,-75.72 -546.8,-200.89 3.14,-7.19 4.94,-15.09 4.94,-23.44 0,-32.4 -26.27,-58.67 -58.67,-58.67 -9.14,0 -17.69,2.27 -25.4,6 C 200.02,1404.08 116.22,1203.99 116.22,984.69 116.22,550.96 444,192.53 864.83,143.61 c 10.23,17.21 28.81,28.86 50.28,28.86 23.81,0 44.2,-14.24 53.4,-34.61 127.06,0.79 247.54,29.7 355.59,80.82 0,0.09 -0.03,0.17 -0.03,0.26 0,19.57 15.86,35.43 35.44,35.43 19.57,0 35.44,-15.86 35.44,-35.43 0,-19.57 -15.87,-35.44 -35.44,-35.44 -3.33,0 -6.5,0.61 -9.56,1.47 C 1235.06,129.17 1106.57,97.26 970.77,96.1 963.23,72.4 941.31,55.12 915.11,55.12 c -28.49,0 -52.2,20.32 -57.52,47.25 -440.47,52.41 -783.21,427.97 -783.21,882.3 0,231.23 88.82,442.05 234.05,600.32 -2.84,6.89 -4.45,14.41 -4.45,22.33 0,32.4 26.27,58.67 58.67,58.67 8.7,0 16.89,-2.01 24.32,-5.41 155.29,132.58 356.49,212.9 576.21,212.9 216.68,0 415.41,-78.03 569.8,-207.34 8.1,4.22 17.16,6.83 26.93,6.83 32.4,0 58.67,-26.27 58.67,-58.67 0,-8.7 -2.01,-16.88 -5.41,-24.31 148.01,-158.83 238.81,-371.62 238.81,-605.32 z M 915.1,83 c 16.98,0 30.78,13.81 30.78,30.79 0,16.97 -13.81,30.78 -30.78,30.78 -16.98,0 -30.8,-13.81 -30.8,-30.78 C 884.31,96.81 898.13,83 915.1,83 Z M 362.65,1638.1 c -16.98,0 -30.8,-13.81 -30.8,-30.78 0,-16.98 13.82,-30.79 30.8,-30.79 16.98,0 30.78,13.81 30.78,30.79 0.01,16.97 -13.8,30.78 -30.78,30.78 z m 1197.27,6.97 c -16.98,0 -30.8,-13.81 -30.8,-30.78 0,-16.98 13.82,-30.79 30.8,-30.79 16.98,0 30.78,13.81 30.78,30.79 0,16.97 -13.81,30.78 -30.78,30.78 z"
   id="path18" />
			<path
   class="st0"
   d="m 425.39,1378.44 c 3.59,0 7.07,-0.44 10.49,-1.06 120.03,160.75 311.71,265.03 527.31,265.03 101.64,0 198.95,-22.65 289.41,-67.08 4.68,2.34 9.88,3.77 15.47,3.77 19.25,0 34.85,-15.61 34.85,-34.85 0,-19.24 -15.61,-34.85 -34.85,-34.85 -17.09,0 -31.25,12.32 -34.22,28.56 -84.59,41.48 -175.6,62.64 -270.66,62.64 -200.53,0 -378.94,-96.37 -491.47,-245.19 7.63,-9.9 12.35,-22.16 12.35,-35.63 0,-32.4 -26.27,-58.67 -58.67,-58.67 -4.02,0 -7.95,0.41 -11.74,1.18 -42.35,-83.48 -66.37,-177.76 -66.37,-277.6 0,-339.62 276.29,-615.91 615.91,-615.91 122.53,0 236.72,36.11 332.76,98.04 -1.23,4.72 -2.09,9.59 -2.09,14.7 0,32.4 26.27,58.67 58.67,58.67 10.34,0 19.92,-2.91 28.36,-7.61 121.78,112.6 198.21,273.56 198.21,452.1 0,85.97 -17.43,169.04 -51.63,247.01 -16.62,2.65 -29.36,16.94 -29.36,34.3 0,19.25 15.6,34.85 34.85,34.85 19.25,0 34.85,-15.61 34.85,-34.85 0,-5.21 -1.22,-10.11 -3.27,-14.55 37.39,-84.15 56.37,-173.89 56.37,-266.76 0,-191.39 -82.22,-363.89 -213.13,-484.19 2.06,-5.98 3.41,-12.29 3.41,-18.97 0,-32.4 -26.27,-58.67 -58.67,-58.67 -11.99,0 -23.12,3.63 -32.41,9.81 -102.89,-66.76 -225.41,-105.7 -356.93,-105.7 -362.68,0 -657.73,295.06 -657.73,657.73 0,108.18 26.42,210.24 72.88,300.35 -7.21,9.75 -11.61,21.68 -11.61,34.74 -0.01,32.39 26.26,58.66 58.66,58.66 z m 0,-89.46 c 16.98,0 30.78,13.81 30.78,30.79 0,16.97 -13.81,30.78 -30.78,30.78 -16.98,0 -30.8,-13.81 -30.8,-30.78 0.01,-16.98 13.83,-30.79 30.8,-30.79 z m 927.14,-838.26 c 16.98,0 30.78,13.81 30.78,30.79 0,16.97 -13.81,30.78 -30.78,30.78 -16.98,0 -30.8,-13.81 -30.8,-30.78 0,-16.98 13.82,-30.79 30.8,-30.79 z"
   id="path20" />
		</g>
	</g>
</g>
</svg>
